<svg xmlns="http://www.w3.org/2000/svg" id="Ebene_2" viewBox="0 0 81.43 81.43"><defs><style>.cls-1{fill:#ffffff;}</style></defs><g id="Ebene_1-2"><g><path class="cls-1" d="M40.71,0C18.26,0,0,18.26,0,40.71s18.26,40.71,40.71,40.71,40.71-18.26,40.71-40.71S63.16,0,40.71,0Zm0,79.09C19.55,79.09,2.34,61.87,2.34,40.71S19.55,2.34,40.71,2.34s38.37,17.21,38.37,38.37-17.21,38.37-38.37,38.37Z"></path><path class="cls-1" d="M63.53,33c.55,0,1-.45,1-1s-.45-1-1-1h-5.22c-.16-1.03-.87-1.86-1.82-2.21v-4.83c0-.55-.45-1-1-1s-1,.45-1,1v4.65h-2.49v-4.65c0-.55-.45-1-1-1s-1,.45-1,1v4.65h-17.19v-4.65c0-.55-.45-1-1-1s-1,.45-1,1v4.65h-2.5v-4.65c0-.55-.45-1-1-1s-1,.45-1,1v4.65h-.4c-1.41,0-2.58,1.04-2.79,2.39h-4.71c-.55,0-1,.45-1,1s.45,1,1,1h4.67v2.5h-4.67c-.55,0-1,.45-1,1s.45,1,1,1h4.67v2.49h-4.67c-.55,0-1,.45-1,1s.45,1,1,1h4.67v8h-4.67c-.55,0-1,.45-1,1s.45,1,1,1h4.67v.57c0,1.56,1.27,2.83,2.83,2.83h.4v4.65c0,.55,.45,1,1,1s1-.45,1-1v-4.65h2.5v4.65c0,.55,.45,1,1,1s1-.45,1-1v-4.65h17.19v4.65c0,.55,.45,1,1,1s1-.45,1-1v-4.65h2.49v4.65c0,.55,.45,1,1,1s1-.45,1-1v-4.83c1.08-.4,1.86-1.43,1.86-2.65v-.57h5.18c.55,0,1-.45,1-1s-.45-1-1-1h-5.18v-2.49h5.18c.55,0,1-.45,1-1s-.45-1-1-1h-5.18v-2.5h5.18c.55,0,1-.45,1-1s-.45-1-1-1h-5.18v-8h5.18Z"></path></g></g></svg>